<mxfile host="65bd71144e">
    <diagram id="C5RBs43oDa-KdzZeNtuy" name="Page-1">
        <mxGraphModel dx="566" dy="412" grid="1" gridSize="10" guides="1" tooltips="1" connect="1" arrows="1" fold="1" page="1" pageScale="1" pageWidth="827" pageHeight="1169" math="0" shadow="0">
            <root>
                <mxCell id="WIyWlLk6GJQsqaUBKTNV-0"/>
                <mxCell id="WIyWlLk6GJQsqaUBKTNV-1" parent="WIyWlLk6GJQsqaUBKTNV-0"/>
                <mxCell id="sR6NPdm-bq62-Y4CgQ1I-216" style="edgeStyle=orthogonalEdgeStyle;rounded=0;orthogonalLoop=1;jettySize=auto;html=1;endArrow=none;endFill=0;" parent="WIyWlLk6GJQsqaUBKTNV-1" source="sR6NPdm-bq62-Y4CgQ1I-8" target="sR6NPdm-bq62-Y4CgQ1I-145" edge="1">
                    <mxGeometry relative="1" as="geometry">
                        <Array as="points">
                            <mxPoint x="440" y="550"/>
                            <mxPoint x="440" y="550"/>
                        </Array>
                    </mxGeometry>
                </mxCell>
                <mxCell id="sR6NPdm-bq62-Y4CgQ1I-217" value="Je uvařeno z&amp;nbsp;" style="edgeLabel;html=1;align=center;verticalAlign=middle;resizable=0;points=[];" parent="sR6NPdm-bq62-Y4CgQ1I-216" vertex="1" connectable="0">
                    <mxGeometry x="-0.1179" relative="1" as="geometry">
                        <mxPoint y="3" as="offset"/>
                    </mxGeometry>
                </mxCell>
                <mxCell id="sR6NPdm-bq62-Y4CgQ1I-294" value="1..n" style="edgeLabel;html=1;align=center;verticalAlign=middle;resizable=0;points=[];" parent="sR6NPdm-bq62-Y4CgQ1I-216" vertex="1" connectable="0">
                    <mxGeometry x="-0.8757" y="1" relative="1" as="geometry">
                        <mxPoint x="9" y="3" as="offset"/>
                    </mxGeometry>
                </mxCell>
                <mxCell id="sR6NPdm-bq62-Y4CgQ1I-295" value="1" style="edgeLabel;html=1;align=center;verticalAlign=middle;resizable=0;points=[];" parent="sR6NPdm-bq62-Y4CgQ1I-216" vertex="1" connectable="0">
                    <mxGeometry x="0.7862" relative="1" as="geometry">
                        <mxPoint x="4" y="1" as="offset"/>
                    </mxGeometry>
                </mxCell>
                <mxCell id="sR6NPdm-bq62-Y4CgQ1I-234" style="edgeStyle=orthogonalEdgeStyle;rounded=0;orthogonalLoop=1;jettySize=auto;html=1;endArrow=none;endFill=0;" parent="WIyWlLk6GJQsqaUBKTNV-1" source="sR6NPdm-bq62-Y4CgQ1I-8" target="sR6NPdm-bq62-Y4CgQ1I-149" edge="1">
                    <mxGeometry relative="1" as="geometry">
                        <Array as="points">
                            <mxPoint x="90" y="347"/>
                            <mxPoint x="90" y="1069"/>
                        </Array>
                    </mxGeometry>
                </mxCell>
                <mxCell id="sR6NPdm-bq62-Y4CgQ1I-236" value="Je dostupné v" style="edgeLabel;html=1;align=center;verticalAlign=middle;resizable=0;points=[];" parent="sR6NPdm-bq62-Y4CgQ1I-234" vertex="1" connectable="0">
                    <mxGeometry x="-0.0034" y="-1" relative="1" as="geometry">
                        <mxPoint y="-1" as="offset"/>
                    </mxGeometry>
                </mxCell>
                <mxCell id="sR6NPdm-bq62-Y4CgQ1I-240" value="0..*" style="edgeLabel;html=1;align=center;verticalAlign=middle;resizable=0;points=[];" parent="sR6NPdm-bq62-Y4CgQ1I-234" vertex="1" connectable="0">
                    <mxGeometry x="-0.9793" y="1" relative="1" as="geometry">
                        <mxPoint x="2" y="-9" as="offset"/>
                    </mxGeometry>
                </mxCell>
                <mxCell id="sR6NPdm-bq62-Y4CgQ1I-241" value="0..*" style="edgeLabel;html=1;align=center;verticalAlign=middle;resizable=0;points=[];" parent="sR6NPdm-bq62-Y4CgQ1I-234" vertex="1" connectable="0">
                    <mxGeometry x="0.9857" y="-3" relative="1" as="geometry">
                        <mxPoint x="-4" y="4" as="offset"/>
                    </mxGeometry>
                </mxCell>
                <mxCell id="sR6NPdm-bq62-Y4CgQ1I-301" style="edgeStyle=orthogonalEdgeStyle;rounded=0;orthogonalLoop=1;jettySize=auto;html=1;endArrow=none;endFill=0;" parent="WIyWlLk6GJQsqaUBKTNV-1" source="sR6NPdm-bq62-Y4CgQ1I-8" target="sR6NPdm-bq62-Y4CgQ1I-247" edge="1">
                    <mxGeometry relative="1" as="geometry">
                        <Array as="points">
                            <mxPoint x="560" y="459"/>
                            <mxPoint x="560" y="419"/>
                        </Array>
                    </mxGeometry>
                </mxCell>
                <mxCell id="sR6NPdm-bq62-Y4CgQ1I-302" value="Vaří" style="edgeLabel;html=1;align=center;verticalAlign=middle;resizable=0;points=[];" parent="sR6NPdm-bq62-Y4CgQ1I-301" vertex="1" connectable="0">
                    <mxGeometry x="-0.0329" y="2" relative="1" as="geometry">
                        <mxPoint y="-7" as="offset"/>
                    </mxGeometry>
                </mxCell>
                <mxCell id="sR6NPdm-bq62-Y4CgQ1I-303" value="1..*" style="edgeLabel;html=1;align=center;verticalAlign=middle;resizable=0;points=[];" parent="sR6NPdm-bq62-Y4CgQ1I-301" vertex="1" connectable="0">
                    <mxGeometry x="-0.9079" y="2" relative="1" as="geometry">
                        <mxPoint x="3" y="-6" as="offset"/>
                    </mxGeometry>
                </mxCell>
                <mxCell id="sR6NPdm-bq62-Y4CgQ1I-304" value="1..*" style="edgeLabel;html=1;align=center;verticalAlign=middle;resizable=0;points=[];" parent="sR6NPdm-bq62-Y4CgQ1I-301" vertex="1" connectable="0">
                    <mxGeometry x="0.8539" y="2" relative="1" as="geometry">
                        <mxPoint x="-2" y="-6" as="offset"/>
                    </mxGeometry>
                </mxCell>
                <mxCell id="sR6NPdm-bq62-Y4CgQ1I-8" value="Pivo" style="swimlane;fontStyle=1;align=center;verticalAlign=top;childLayout=stackLayout;horizontal=1;startSize=26;horizontalStack=0;resizeParent=1;resizeParentMax=0;resizeLast=0;collapsible=1;marginBottom=0;whiteSpace=wrap;html=1;" parent="WIyWlLk6GJQsqaUBKTNV-1" vertex="1">
                    <mxGeometry x="350" y="239" width="160" height="326" as="geometry"/>
                </mxCell>
                <mxCell id="sR6NPdm-bq62-Y4CgQ1I-9" value="Jméno" style="text;strokeColor=none;fillColor=none;align=left;verticalAlign=top;spacingLeft=4;spacingRight=4;overflow=hidden;rotatable=0;points=[[0,0.5],[1,0.5]];portConstraint=eastwest;whiteSpace=wrap;html=1;" parent="sR6NPdm-bq62-Y4CgQ1I-8" vertex="1">
                    <mxGeometry y="26" width="160" height="26" as="geometry"/>
                </mxCell>
                <mxCell id="sR6NPdm-bq62-Y4CgQ1I-12" value="Barva" style="text;strokeColor=none;fillColor=none;align=left;verticalAlign=top;spacingLeft=4;spacingRight=4;overflow=hidden;rotatable=0;points=[[0,0.5],[1,0.5]];portConstraint=eastwest;whiteSpace=wrap;html=1;" parent="sR6NPdm-bq62-Y4CgQ1I-8" vertex="1">
                    <mxGeometry y="52" width="160" height="26" as="geometry"/>
                </mxCell>
                <mxCell id="sR6NPdm-bq62-Y4CgQ1I-13" value="Typ" style="text;strokeColor=none;fillColor=none;align=left;verticalAlign=top;spacingLeft=4;spacingRight=4;overflow=hidden;rotatable=0;points=[[0,0.5],[1,0.5]];portConstraint=eastwest;whiteSpace=wrap;html=1;" parent="sR6NPdm-bq62-Y4CgQ1I-8" vertex="1">
                    <mxGeometry y="78" width="160" height="26" as="geometry"/>
                </mxCell>
                <mxCell id="sR6NPdm-bq62-Y4CgQ1I-14" value="Obsha alkoholu" style="text;strokeColor=none;fillColor=none;align=left;verticalAlign=top;spacingLeft=4;spacingRight=4;overflow=hidden;rotatable=0;points=[[0,0.5],[1,0.5]];portConstraint=eastwest;whiteSpace=wrap;html=1;" parent="sR6NPdm-bq62-Y4CgQ1I-8" vertex="1">
                    <mxGeometry y="104" width="160" height="26" as="geometry"/>
                </mxCell>
                <mxCell id="sR6NPdm-bq62-Y4CgQ1I-143" value="Styl kvašení" style="text;strokeColor=none;fillColor=none;align=left;verticalAlign=top;spacingLeft=4;spacingRight=4;overflow=hidden;rotatable=0;points=[[0,0.5],[1,0.5]];portConstraint=eastwest;whiteSpace=wrap;html=1;" parent="sR6NPdm-bq62-Y4CgQ1I-8" vertex="1">
                    <mxGeometry y="130" width="160" height="26" as="geometry"/>
                </mxCell>
                <mxCell id="sR6NPdm-bq62-Y4CgQ1I-144" value="Období vaření" style="text;strokeColor=none;fillColor=none;align=left;verticalAlign=top;spacingLeft=4;spacingRight=4;overflow=hidden;rotatable=0;points=[[0,0.5],[1,0.5]];portConstraint=eastwest;whiteSpace=wrap;html=1;" parent="sR6NPdm-bq62-Y4CgQ1I-8" vertex="1">
                    <mxGeometry y="156" width="160" height="28" as="geometry"/>
                </mxCell>
                <mxCell id="sR6NPdm-bq62-Y4CgQ1I-259" value="Hodnocení" style="text;strokeColor=none;fillColor=none;align=left;verticalAlign=top;spacingLeft=4;spacingRight=4;overflow=hidden;rotatable=0;points=[[0,0.5],[1,0.5]];portConstraint=eastwest;whiteSpace=wrap;html=1;" parent="sR6NPdm-bq62-Y4CgQ1I-8" vertex="1">
                    <mxGeometry y="184" width="160" height="28" as="geometry"/>
                </mxCell>
                <mxCell id="sR6NPdm-bq62-Y4CgQ1I-325" value="Hodnocení" style="text;strokeColor=none;fillColor=none;align=left;verticalAlign=top;spacingLeft=4;spacingRight=4;overflow=hidden;rotatable=0;points=[[0,0.5],[1,0.5]];portConstraint=eastwest;whiteSpace=wrap;html=1;" parent="sR6NPdm-bq62-Y4CgQ1I-8" vertex="1">
                    <mxGeometry y="212" width="160" height="28" as="geometry"/>
                </mxCell>
                <mxCell id="sR6NPdm-bq62-Y4CgQ1I-10" value="" style="line;strokeWidth=1;fillColor=none;align=left;verticalAlign=middle;spacingTop=-1;spacingLeft=3;spacingRight=3;rotatable=0;labelPosition=right;points=[];portConstraint=eastwest;strokeColor=inherit;" parent="sR6NPdm-bq62-Y4CgQ1I-8" vertex="1">
                    <mxGeometry y="240" width="160" height="8" as="geometry"/>
                </mxCell>
                <mxCell id="sR6NPdm-bq62-Y4CgQ1I-322" value="přidadRecenzi()" style="text;strokeColor=none;fillColor=none;align=left;verticalAlign=top;spacingLeft=4;spacingRight=4;overflow=hidden;rotatable=0;points=[[0,0.5],[1,0.5]];portConstraint=eastwest;whiteSpace=wrap;html=1;" parent="sR6NPdm-bq62-Y4CgQ1I-8" vertex="1">
                    <mxGeometry y="248" width="160" height="26" as="geometry"/>
                </mxCell>
                <mxCell id="sR6NPdm-bq62-Y4CgQ1I-11" value="vypočítatHodnocení()" style="text;strokeColor=none;fillColor=none;align=left;verticalAlign=top;spacingLeft=4;spacingRight=4;overflow=hidden;rotatable=0;points=[[0,0.5],[1,0.5]];portConstraint=eastwest;whiteSpace=wrap;html=1;" parent="sR6NPdm-bq62-Y4CgQ1I-8" vertex="1">
                    <mxGeometry y="274" width="160" height="26" as="geometry"/>
                </mxCell>
                <mxCell id="sR6NPdm-bq62-Y4CgQ1I-323" value="vypočítatHodnocení()" style="text;strokeColor=none;fillColor=none;align=left;verticalAlign=top;spacingLeft=4;spacingRight=4;overflow=hidden;rotatable=0;points=[[0,0.5],[1,0.5]];portConstraint=eastwest;whiteSpace=wrap;html=1;" parent="sR6NPdm-bq62-Y4CgQ1I-8" vertex="1">
                    <mxGeometry y="300" width="160" height="26" as="geometry"/>
                </mxCell>
                <mxCell id="sR6NPdm-bq62-Y4CgQ1I-149" value="Kamenná prodejna" style="swimlane;fontStyle=1;align=center;verticalAlign=top;childLayout=stackLayout;horizontal=1;startSize=26;horizontalStack=0;resizeParent=1;resizeParentMax=0;resizeLast=0;collapsible=1;marginBottom=0;whiteSpace=wrap;html=1;" parent="WIyWlLk6GJQsqaUBKTNV-1" vertex="1">
                    <mxGeometry x="349" y="1009" width="160" height="138" as="geometry"/>
                </mxCell>
                <mxCell id="sR6NPdm-bq62-Y4CgQ1I-150" value="Název" style="text;strokeColor=none;fillColor=none;align=left;verticalAlign=top;spacingLeft=4;spacingRight=4;overflow=hidden;rotatable=0;points=[[0,0.5],[1,0.5]];portConstraint=eastwest;whiteSpace=wrap;html=1;" parent="sR6NPdm-bq62-Y4CgQ1I-149" vertex="1">
                    <mxGeometry y="26" width="160" height="26" as="geometry"/>
                </mxCell>
                <mxCell id="sR6NPdm-bq62-Y4CgQ1I-242" value="Adresa" style="text;strokeColor=none;fillColor=none;align=left;verticalAlign=top;spacingLeft=4;spacingRight=4;overflow=hidden;rotatable=0;points=[[0,0.5],[1,0.5]];portConstraint=eastwest;whiteSpace=wrap;html=1;" parent="sR6NPdm-bq62-Y4CgQ1I-149" vertex="1">
                    <mxGeometry y="52" width="160" height="26" as="geometry"/>
                </mxCell>
                <mxCell id="sR6NPdm-bq62-Y4CgQ1I-187" value="Adresa" style="text;strokeColor=none;fillColor=none;align=left;verticalAlign=top;spacingLeft=4;spacingRight=4;overflow=hidden;rotatable=0;points=[[0,0.5],[1,0.5]];portConstraint=eastwest;whiteSpace=wrap;html=1;" parent="sR6NPdm-bq62-Y4CgQ1I-149" vertex="1">
                    <mxGeometry y="78" width="160" height="26" as="geometry"/>
                </mxCell>
                <mxCell id="sR6NPdm-bq62-Y4CgQ1I-151" value="" style="line;strokeWidth=1;fillColor=none;align=left;verticalAlign=middle;spacingTop=-1;spacingLeft=3;spacingRight=3;rotatable=0;labelPosition=right;points=[];portConstraint=eastwest;strokeColor=inherit;" parent="sR6NPdm-bq62-Y4CgQ1I-149" vertex="1">
                    <mxGeometry y="104" width="160" height="8" as="geometry"/>
                </mxCell>
                <mxCell id="sR6NPdm-bq62-Y4CgQ1I-152" value="+ method(type): type" style="text;strokeColor=none;fillColor=none;align=left;verticalAlign=top;spacingLeft=4;spacingRight=4;overflow=hidden;rotatable=0;points=[[0,0.5],[1,0.5]];portConstraint=eastwest;whiteSpace=wrap;html=1;" parent="sR6NPdm-bq62-Y4CgQ1I-149" vertex="1">
                    <mxGeometry y="112" width="160" height="26" as="geometry"/>
                </mxCell>
                <mxCell id="sR6NPdm-bq62-Y4CgQ1I-190" style="edgeStyle=orthogonalEdgeStyle;rounded=0;orthogonalLoop=1;jettySize=auto;html=1;endArrow=none;endFill=0;" parent="WIyWlLk6GJQsqaUBKTNV-1" source="sR6NPdm-bq62-Y4CgQ1I-153" target="sR6NPdm-bq62-Y4CgQ1I-149" edge="1">
                    <mxGeometry relative="1" as="geometry">
                        <Array as="points">
                            <mxPoint x="429" y="899"/>
                            <mxPoint x="429" y="899"/>
                        </Array>
                    </mxGeometry>
                </mxCell>
                <mxCell id="sR6NPdm-bq62-Y4CgQ1I-326" value="1..*" style="edgeLabel;html=1;align=center;verticalAlign=middle;resizable=0;points=[];" parent="sR6NPdm-bq62-Y4CgQ1I-190" vertex="1" connectable="0">
                    <mxGeometry x="-0.8453" relative="1" as="geometry">
                        <mxPoint x="9" y="117" as="offset"/>
                    </mxGeometry>
                </mxCell>
                <mxCell id="sR6NPdm-bq62-Y4CgQ1I-332" value="0..*" style="edgeLabel;html=1;align=center;verticalAlign=middle;resizable=0;points=[];" parent="sR6NPdm-bq62-Y4CgQ1I-190" vertex="1" connectable="0">
                    <mxGeometry x="-0.8851" y="-1" relative="1" as="geometry">
                        <mxPoint x="-9" y="-1" as="offset"/>
                    </mxGeometry>
                </mxCell>
                <mxCell id="sR6NPdm-bq62-Y4CgQ1I-153" value="Slad" style="swimlane;fontStyle=1;align=center;verticalAlign=top;childLayout=stackLayout;horizontal=1;startSize=26;horizontalStack=0;resizeParent=1;resizeParentMax=0;resizeLast=0;collapsible=1;marginBottom=0;whiteSpace=wrap;html=1;" parent="WIyWlLk6GJQsqaUBKTNV-1" vertex="1">
                    <mxGeometry x="345" y="737.17" width="160" height="136" as="geometry"/>
                </mxCell>
                <mxCell id="sR6NPdm-bq62-Y4CgQ1I-154" value="Barba" style="text;strokeColor=none;fillColor=none;align=left;verticalAlign=top;spacingLeft=4;spacingRight=4;overflow=hidden;rotatable=0;points=[[0,0.5],[1,0.5]];portConstraint=eastwest;whiteSpace=wrap;html=1;" parent="sR6NPdm-bq62-Y4CgQ1I-153" vertex="1">
                    <mxGeometry y="26" width="160" height="26" as="geometry"/>
                </mxCell>
                <mxCell id="sR6NPdm-bq62-Y4CgQ1I-177" value="Původ" style="text;strokeColor=none;fillColor=none;align=left;verticalAlign=top;spacingLeft=4;spacingRight=4;overflow=hidden;rotatable=0;points=[[0,0.5],[1,0.5]];portConstraint=eastwest;whiteSpace=wrap;html=1;" parent="sR6NPdm-bq62-Y4CgQ1I-153" vertex="1">
                    <mxGeometry y="52" width="160" height="26" as="geometry"/>
                </mxCell>
                <mxCell id="sR6NPdm-bq62-Y4CgQ1I-178" value="Extrakt" style="text;strokeColor=none;fillColor=none;align=left;verticalAlign=top;spacingLeft=4;spacingRight=4;overflow=hidden;rotatable=0;points=[[0,0.5],[1,0.5]];portConstraint=eastwest;whiteSpace=wrap;html=1;" parent="sR6NPdm-bq62-Y4CgQ1I-153" vertex="1">
                    <mxGeometry y="78" width="160" height="26" as="geometry"/>
                </mxCell>
                <mxCell id="sR6NPdm-bq62-Y4CgQ1I-155" value="" style="line;strokeWidth=1;fillColor=none;align=left;verticalAlign=middle;spacingTop=-1;spacingLeft=3;spacingRight=3;rotatable=0;labelPosition=right;points=[];portConstraint=eastwest;strokeColor=inherit;" parent="sR6NPdm-bq62-Y4CgQ1I-153" vertex="1">
                    <mxGeometry y="104" width="160" height="6" as="geometry"/>
                </mxCell>
                <mxCell id="sR6NPdm-bq62-Y4CgQ1I-156" value="+ method(type): type" style="text;strokeColor=none;fillColor=none;align=left;verticalAlign=top;spacingLeft=4;spacingRight=4;overflow=hidden;rotatable=0;points=[[0,0.5],[1,0.5]];portConstraint=eastwest;whiteSpace=wrap;html=1;" parent="sR6NPdm-bq62-Y4CgQ1I-153" vertex="1">
                    <mxGeometry y="110" width="160" height="26" as="geometry"/>
                </mxCell>
                <mxCell id="sR6NPdm-bq62-Y4CgQ1I-172" style="edgeStyle=orthogonalEdgeStyle;rounded=0;orthogonalLoop=1;jettySize=auto;html=1;startSize=6;endArrow=diamondThin;endFill=0;endSize=24;" parent="WIyWlLk6GJQsqaUBKTNV-1" source="sR6NPdm-bq62-Y4CgQ1I-157" target="sR6NPdm-bq62-Y4CgQ1I-145" edge="1">
                    <mxGeometry relative="1" as="geometry">
                        <Array as="points">
                            <mxPoint x="229" y="689"/>
                            <mxPoint x="390" y="689"/>
                        </Array>
                    </mxGeometry>
                </mxCell>
                <mxCell id="sR6NPdm-bq62-Y4CgQ1I-288" value="1..*" style="edgeLabel;html=1;align=center;verticalAlign=middle;resizable=0;points=[];" parent="sR6NPdm-bq62-Y4CgQ1I-172" vertex="1" connectable="0">
                    <mxGeometry x="-0.9124" relative="1" as="geometry">
                        <mxPoint x="10" y="2" as="offset"/>
                    </mxGeometry>
                </mxCell>
                <mxCell id="sR6NPdm-bq62-Y4CgQ1I-289" value="0..*" style="edgeLabel;html=1;align=center;verticalAlign=middle;resizable=0;points=[];" parent="sR6NPdm-bq62-Y4CgQ1I-172" vertex="1" connectable="0">
                    <mxGeometry x="0.9135" y="8" relative="1" as="geometry">
                        <mxPoint x="-10" y="-3" as="offset"/>
                    </mxGeometry>
                </mxCell>
                <mxCell id="sR6NPdm-bq62-Y4CgQ1I-189" style="edgeStyle=orthogonalEdgeStyle;rounded=0;orthogonalLoop=1;jettySize=auto;html=1;endArrow=none;endFill=0;" parent="WIyWlLk6GJQsqaUBKTNV-1" source="sR6NPdm-bq62-Y4CgQ1I-157" target="sR6NPdm-bq62-Y4CgQ1I-149" edge="1">
                    <mxGeometry relative="1" as="geometry">
                        <Array as="points">
                            <mxPoint x="229" y="929"/>
                            <mxPoint x="380" y="929"/>
                        </Array>
                    </mxGeometry>
                </mxCell>
                <mxCell id="sR6NPdm-bq62-Y4CgQ1I-331" value="0..*" style="edgeLabel;html=1;align=center;verticalAlign=middle;resizable=0;points=[];" parent="sR6NPdm-bq62-Y4CgQ1I-189" vertex="1" connectable="0">
                    <mxGeometry x="-0.9289" y="-3" relative="1" as="geometry">
                        <mxPoint x="-7" y="-3" as="offset"/>
                    </mxGeometry>
                </mxCell>
                <mxCell id="sR6NPdm-bq62-Y4CgQ1I-157" value="Kvasnice" style="swimlane;fontStyle=1;align=center;verticalAlign=top;childLayout=stackLayout;horizontal=1;startSize=26;horizontalStack=0;resizeParent=1;resizeParentMax=0;resizeLast=0;collapsible=1;marginBottom=0;whiteSpace=wrap;html=1;" parent="WIyWlLk6GJQsqaUBKTNV-1" vertex="1">
                    <mxGeometry x="145" y="737.17" width="160" height="138" as="geometry">
                        <mxRectangle x="145" y="737.17" width="90" height="30" as="alternateBounds"/>
                    </mxGeometry>
                </mxCell>
                <mxCell id="sR6NPdm-bq62-Y4CgQ1I-158" value="Typ kvasnic" style="text;strokeColor=none;fillColor=none;align=left;verticalAlign=top;spacingLeft=4;spacingRight=4;overflow=hidden;rotatable=0;points=[[0,0.5],[1,0.5]];portConstraint=eastwest;whiteSpace=wrap;html=1;" parent="sR6NPdm-bq62-Y4CgQ1I-157" vertex="1">
                    <mxGeometry y="26" width="160" height="26" as="geometry"/>
                </mxCell>
                <mxCell id="sR6NPdm-bq62-Y4CgQ1I-175" value="Typ kvasnic" style="text;strokeColor=none;fillColor=none;align=left;verticalAlign=top;spacingLeft=4;spacingRight=4;overflow=hidden;rotatable=0;points=[[0,0.5],[1,0.5]];portConstraint=eastwest;whiteSpace=wrap;html=1;" parent="sR6NPdm-bq62-Y4CgQ1I-157" vertex="1">
                    <mxGeometry y="52" width="160" height="26" as="geometry"/>
                </mxCell>
                <mxCell id="sR6NPdm-bq62-Y4CgQ1I-176" value="Typ kvasnic" style="text;strokeColor=none;fillColor=none;align=left;verticalAlign=top;spacingLeft=4;spacingRight=4;overflow=hidden;rotatable=0;points=[[0,0.5],[1,0.5]];portConstraint=eastwest;whiteSpace=wrap;html=1;" parent="sR6NPdm-bq62-Y4CgQ1I-157" vertex="1">
                    <mxGeometry y="78" width="160" height="26" as="geometry"/>
                </mxCell>
                <mxCell id="sR6NPdm-bq62-Y4CgQ1I-159" value="" style="line;strokeWidth=1;fillColor=none;align=left;verticalAlign=middle;spacingTop=-1;spacingLeft=3;spacingRight=3;rotatable=0;labelPosition=right;points=[];portConstraint=eastwest;strokeColor=inherit;" parent="sR6NPdm-bq62-Y4CgQ1I-157" vertex="1">
                    <mxGeometry y="104" width="160" height="8" as="geometry"/>
                </mxCell>
                <mxCell id="sR6NPdm-bq62-Y4CgQ1I-160" value="+ method(type): type" style="text;strokeColor=none;fillColor=none;align=left;verticalAlign=top;spacingLeft=4;spacingRight=4;overflow=hidden;rotatable=0;points=[[0,0.5],[1,0.5]];portConstraint=eastwest;whiteSpace=wrap;html=1;" parent="sR6NPdm-bq62-Y4CgQ1I-157" vertex="1">
                    <mxGeometry y="112" width="160" height="26" as="geometry"/>
                </mxCell>
                <mxCell id="sR6NPdm-bq62-Y4CgQ1I-186" style="edgeStyle=orthogonalEdgeStyle;rounded=0;orthogonalLoop=1;jettySize=auto;html=1;endArrow=diamondThin;endFill=0;endSize=24;" parent="WIyWlLk6GJQsqaUBKTNV-1" source="sR6NPdm-bq62-Y4CgQ1I-165" target="sR6NPdm-bq62-Y4CgQ1I-145" edge="1">
                    <mxGeometry relative="1" as="geometry">
                        <Array as="points">
                            <mxPoint x="634" y="689"/>
                            <mxPoint x="470" y="689"/>
                        </Array>
                    </mxGeometry>
                </mxCell>
                <mxCell id="sR6NPdm-bq62-Y4CgQ1I-285" value="1..*" style="edgeLabel;html=1;align=center;verticalAlign=middle;resizable=0;points=[];" parent="sR6NPdm-bq62-Y4CgQ1I-186" vertex="1" connectable="0">
                    <mxGeometry x="-0.9137" relative="1" as="geometry">
                        <mxPoint x="10" y="2" as="offset"/>
                    </mxGeometry>
                </mxCell>
                <mxCell id="sR6NPdm-bq62-Y4CgQ1I-191" style="edgeStyle=orthogonalEdgeStyle;rounded=0;orthogonalLoop=1;jettySize=auto;html=1;endArrow=none;endFill=0;" parent="WIyWlLk6GJQsqaUBKTNV-1" source="sR6NPdm-bq62-Y4CgQ1I-165" target="sR6NPdm-bq62-Y4CgQ1I-149" edge="1">
                    <mxGeometry relative="1" as="geometry">
                        <Array as="points">
                            <mxPoint x="634" y="949"/>
                            <mxPoint x="480" y="949"/>
                        </Array>
                    </mxGeometry>
                </mxCell>
                <mxCell id="sR6NPdm-bq62-Y4CgQ1I-335" value="0..*" style="edgeLabel;html=1;align=center;verticalAlign=middle;resizable=0;points=[];" parent="sR6NPdm-bq62-Y4CgQ1I-191" vertex="1" connectable="0">
                    <mxGeometry x="-0.9196" relative="1" as="geometry">
                        <mxPoint x="10" y="-2" as="offset"/>
                    </mxGeometry>
                </mxCell>
                <mxCell id="sR6NPdm-bq62-Y4CgQ1I-165" value="Chmel" style="swimlane;fontStyle=1;align=center;verticalAlign=top;childLayout=stackLayout;horizontal=1;startSize=26;horizontalStack=0;resizeParent=1;resizeParentMax=0;resizeLast=0;collapsible=1;marginBottom=0;whiteSpace=wrap;html=1;" parent="WIyWlLk6GJQsqaUBKTNV-1" vertex="1">
                    <mxGeometry x="545" y="737.17" width="170" height="190" as="geometry"/>
                </mxCell>
                <mxCell id="sR6NPdm-bq62-Y4CgQ1I-166" value="Aroma" style="text;strokeColor=none;fillColor=none;align=left;verticalAlign=top;spacingLeft=4;spacingRight=4;overflow=hidden;rotatable=0;points=[[0,0.5],[1,0.5]];portConstraint=eastwest;whiteSpace=wrap;html=1;" parent="sR6NPdm-bq62-Y4CgQ1I-165" vertex="1">
                    <mxGeometry y="26" width="170" height="26" as="geometry"/>
                </mxCell>
                <mxCell id="sR6NPdm-bq62-Y4CgQ1I-179" value="Hořkost" style="text;strokeColor=none;fillColor=none;align=left;verticalAlign=top;spacingLeft=4;spacingRight=4;overflow=hidden;rotatable=0;points=[[0,0.5],[1,0.5]];portConstraint=eastwest;whiteSpace=wrap;html=1;" parent="sR6NPdm-bq62-Y4CgQ1I-165" vertex="1">
                    <mxGeometry y="52" width="170" height="26" as="geometry"/>
                </mxCell>
                <mxCell id="sR6NPdm-bq62-Y4CgQ1I-180" value="Obsah alfa kyselin" style="text;strokeColor=none;fillColor=none;align=left;verticalAlign=top;spacingLeft=4;spacingRight=4;overflow=hidden;rotatable=0;points=[[0,0.5],[1,0.5]];portConstraint=eastwest;whiteSpace=wrap;html=1;" parent="sR6NPdm-bq62-Y4CgQ1I-165" vertex="1">
                    <mxGeometry y="78" width="170" height="26" as="geometry"/>
                </mxCell>
                <mxCell id="sR6NPdm-bq62-Y4CgQ1I-181" value="Původ" style="text;strokeColor=none;fillColor=none;align=left;verticalAlign=top;spacingLeft=4;spacingRight=4;overflow=hidden;rotatable=0;points=[[0,0.5],[1,0.5]];portConstraint=eastwest;whiteSpace=wrap;html=1;" parent="sR6NPdm-bq62-Y4CgQ1I-165" vertex="1">
                    <mxGeometry y="104" width="170" height="26" as="geometry"/>
                </mxCell>
                <mxCell id="sR6NPdm-bq62-Y4CgQ1I-182" value="Doba sklizně" style="text;strokeColor=none;fillColor=none;align=left;verticalAlign=top;spacingLeft=4;spacingRight=4;overflow=hidden;rotatable=0;points=[[0,0.5],[1,0.5]];portConstraint=eastwest;whiteSpace=wrap;html=1;" parent="sR6NPdm-bq62-Y4CgQ1I-165" vertex="1">
                    <mxGeometry y="130" width="170" height="26" as="geometry"/>
                </mxCell>
                <mxCell id="sR6NPdm-bq62-Y4CgQ1I-167" value="" style="line;strokeWidth=1;fillColor=none;align=left;verticalAlign=middle;spacingTop=-1;spacingLeft=3;spacingRight=3;rotatable=0;labelPosition=right;points=[];portConstraint=eastwest;strokeColor=inherit;" parent="sR6NPdm-bq62-Y4CgQ1I-165" vertex="1">
                    <mxGeometry y="156" width="170" height="8" as="geometry"/>
                </mxCell>
                <mxCell id="sR6NPdm-bq62-Y4CgQ1I-168" value="+ method(type): type" style="text;strokeColor=none;fillColor=none;align=left;verticalAlign=top;spacingLeft=4;spacingRight=4;overflow=hidden;rotatable=0;points=[[0,0.5],[1,0.5]];portConstraint=eastwest;whiteSpace=wrap;html=1;" parent="sR6NPdm-bq62-Y4CgQ1I-165" vertex="1">
                    <mxGeometry y="164" width="170" height="26" as="geometry"/>
                </mxCell>
                <mxCell id="sR6NPdm-bq62-Y4CgQ1I-145" value="&lt;i&gt;Ingredience&lt;/i&gt;" style="swimlane;fontStyle=1;align=center;verticalAlign=top;childLayout=stackLayout;horizontal=1;startSize=26;horizontalStack=0;resizeParent=1;resizeParentMax=0;resizeLast=0;collapsible=1;marginBottom=0;whiteSpace=wrap;html=1;" parent="WIyWlLk6GJQsqaUBKTNV-1" vertex="1">
                    <mxGeometry x="360" y="620" width="160" height="31" as="geometry"/>
                </mxCell>
                <mxCell id="sR6NPdm-bq62-Y4CgQ1I-173" style="edgeStyle=orthogonalEdgeStyle;rounded=0;orthogonalLoop=1;jettySize=auto;html=1;startSize=6;endArrow=diamondThin;endFill=0;endSize=24;" parent="WIyWlLk6GJQsqaUBKTNV-1" source="sR6NPdm-bq62-Y4CgQ1I-153" target="sR6NPdm-bq62-Y4CgQ1I-145" edge="1">
                    <mxGeometry relative="1" as="geometry">
                        <mxPoint x="669" y="679" as="sourcePoint"/>
                        <mxPoint x="609" y="509" as="targetPoint"/>
                        <Array as="points">
                            <mxPoint x="430" y="710"/>
                            <mxPoint x="430" y="710"/>
                        </Array>
                    </mxGeometry>
                </mxCell>
                <mxCell id="sR6NPdm-bq62-Y4CgQ1I-287" value="1..*" style="edgeLabel;html=1;align=center;verticalAlign=middle;resizable=0;points=[];" parent="sR6NPdm-bq62-Y4CgQ1I-173" vertex="1" connectable="0">
                    <mxGeometry x="-0.7055" y="-1" relative="1" as="geometry">
                        <mxPoint x="9" y="1" as="offset"/>
                    </mxGeometry>
                </mxCell>
                <mxCell id="sR6NPdm-bq62-Y4CgQ1I-315" style="edgeStyle=orthogonalEdgeStyle;rounded=0;orthogonalLoop=1;jettySize=auto;html=1;dashed=1;endArrow=none;endFill=0;" parent="WIyWlLk6GJQsqaUBKTNV-1" source="sR6NPdm-bq62-Y4CgQ1I-199" edge="1">
                    <mxGeometry relative="1" as="geometry">
                        <mxPoint x="289" y="158.00269541778974" as="sourcePoint"/>
                        <mxPoint x="429.0026954177897" y="156" as="targetPoint"/>
                        <Array as="points">
                            <mxPoint x="429" y="190"/>
                        </Array>
                    </mxGeometry>
                </mxCell>
                <mxCell id="sR6NPdm-bq62-Y4CgQ1I-316" style="edgeStyle=orthogonalEdgeStyle;rounded=0;orthogonalLoop=1;jettySize=auto;html=1;endArrow=none;endFill=0;dashed=1;" parent="WIyWlLk6GJQsqaUBKTNV-1" edge="1">
                    <mxGeometry relative="1" as="geometry">
                        <mxPoint x="209.9999999999999" y="239.9999999999999" as="sourcePoint"/>
                        <mxPoint x="350" y="347" as="targetPoint"/>
                        <Array as="points">
                            <mxPoint x="210" y="347"/>
                        </Array>
                    </mxGeometry>
                </mxCell>
                <mxCell id="sR6NPdm-bq62-Y4CgQ1I-199" value="Distribuční forma" style="swimlane;fontStyle=1;align=center;verticalAlign=top;childLayout=stackLayout;horizontal=1;startSize=26;horizontalStack=0;resizeParent=1;resizeParentMax=0;resizeLast=0;collapsible=1;marginBottom=0;whiteSpace=wrap;html=1;" parent="WIyWlLk6GJQsqaUBKTNV-1" vertex="1">
                    <mxGeometry x="130" y="83" width="160" height="150" as="geometry"/>
                </mxCell>
                <mxCell id="sR6NPdm-bq62-Y4CgQ1I-207" value="Typ" style="text;strokeColor=none;fillColor=none;spacingLeft=4;spacingRight=4;overflow=hidden;rotatable=0;points=[[0,0.5],[1,0.5]];portConstraint=eastwest;fontSize=12;" parent="sR6NPdm-bq62-Y4CgQ1I-199" vertex="1">
                    <mxGeometry y="26" width="160" height="30" as="geometry"/>
                </mxCell>
                <mxCell id="sR6NPdm-bq62-Y4CgQ1I-208" value="Objem" style="text;strokeColor=none;fillColor=none;spacingLeft=4;spacingRight=4;overflow=hidden;rotatable=0;points=[[0,0.5],[1,0.5]];portConstraint=eastwest;fontSize=12;" parent="sR6NPdm-bq62-Y4CgQ1I-199" vertex="1">
                    <mxGeometry y="56" width="160" height="30" as="geometry"/>
                </mxCell>
                <mxCell id="sR6NPdm-bq62-Y4CgQ1I-209" value="Záloha" style="text;strokeColor=none;fillColor=none;spacingLeft=4;spacingRight=4;overflow=hidden;rotatable=0;points=[[0,0.5],[1,0.5]];portConstraint=eastwest;fontSize=12;" parent="sR6NPdm-bq62-Y4CgQ1I-199" vertex="1">
                    <mxGeometry y="86" width="160" height="30" as="geometry"/>
                </mxCell>
                <mxCell id="sR6NPdm-bq62-Y4CgQ1I-201" value="" style="line;strokeWidth=1;fillColor=none;align=left;verticalAlign=middle;spacingTop=-1;spacingLeft=3;spacingRight=3;rotatable=0;labelPosition=right;points=[];portConstraint=eastwest;strokeColor=inherit;" parent="sR6NPdm-bq62-Y4CgQ1I-199" vertex="1">
                    <mxGeometry y="116" width="160" height="8" as="geometry"/>
                </mxCell>
                <mxCell id="sR6NPdm-bq62-Y4CgQ1I-202" value="+ method(type): type" style="text;strokeColor=none;fillColor=none;align=left;verticalAlign=top;spacingLeft=4;spacingRight=4;overflow=hidden;rotatable=0;points=[[0,0.5],[1,0.5]];portConstraint=eastwest;whiteSpace=wrap;html=1;" parent="sR6NPdm-bq62-Y4CgQ1I-199" vertex="1">
                    <mxGeometry y="124" width="160" height="26" as="geometry"/>
                </mxCell>
                <mxCell id="sR6NPdm-bq62-Y4CgQ1I-311" style="edgeStyle=orthogonalEdgeStyle;rounded=0;orthogonalLoop=1;jettySize=auto;html=1;dashed=1;endArrow=none;endFill=0;" parent="WIyWlLk6GJQsqaUBKTNV-1" source="sR6NPdm-bq62-Y4CgQ1I-218" target="sR6NPdm-bq62-Y4CgQ1I-307" edge="1">
                    <mxGeometry relative="1" as="geometry">
                        <Array as="points">
                            <mxPoint x="570" y="90"/>
                            <mxPoint x="570" y="130"/>
                        </Array>
                    </mxGeometry>
                </mxCell>
                <mxCell id="sR6NPdm-bq62-Y4CgQ1I-218" value="Hospoda" style="swimlane;fontStyle=1;align=center;verticalAlign=top;childLayout=stackLayout;horizontal=1;startSize=26;horizontalStack=0;resizeParent=1;resizeParentMax=0;resizeLast=0;collapsible=1;marginBottom=0;whiteSpace=wrap;html=1;" parent="WIyWlLk6GJQsqaUBKTNV-1" vertex="1">
                    <mxGeometry x="385" y="70" width="160" height="86" as="geometry"/>
                </mxCell>
                <mxCell id="sR6NPdm-bq62-Y4CgQ1I-219" value="jméno" style="text;strokeColor=none;fillColor=none;align=left;verticalAlign=top;spacingLeft=4;spacingRight=4;overflow=hidden;rotatable=0;points=[[0,0.5],[1,0.5]];portConstraint=eastwest;whiteSpace=wrap;html=1;" parent="sR6NPdm-bq62-Y4CgQ1I-218" vertex="1">
                    <mxGeometry y="26" width="160" height="26" as="geometry"/>
                </mxCell>
                <mxCell id="sR6NPdm-bq62-Y4CgQ1I-220" value="" style="line;strokeWidth=1;fillColor=none;align=left;verticalAlign=middle;spacingTop=-1;spacingLeft=3;spacingRight=3;rotatable=0;labelPosition=right;points=[];portConstraint=eastwest;strokeColor=inherit;" parent="sR6NPdm-bq62-Y4CgQ1I-218" vertex="1">
                    <mxGeometry y="52" width="160" height="8" as="geometry"/>
                </mxCell>
                <mxCell id="sR6NPdm-bq62-Y4CgQ1I-221" value="+ method(type): type" style="text;strokeColor=none;fillColor=none;align=left;verticalAlign=top;spacingLeft=4;spacingRight=4;overflow=hidden;rotatable=0;points=[[0,0.5],[1,0.5]];portConstraint=eastwest;whiteSpace=wrap;html=1;" parent="sR6NPdm-bq62-Y4CgQ1I-218" vertex="1">
                    <mxGeometry y="60" width="160" height="26" as="geometry"/>
                </mxCell>
                <mxCell id="sR6NPdm-bq62-Y4CgQ1I-223" value="Běžný uživatel" style="swimlane;fontStyle=1;align=center;verticalAlign=top;childLayout=stackLayout;horizontal=1;startSize=26;horizontalStack=0;resizeParent=1;resizeParentMax=0;resizeLast=0;collapsible=1;marginBottom=0;whiteSpace=wrap;html=1;" parent="WIyWlLk6GJQsqaUBKTNV-1" vertex="1">
                    <mxGeometry x="600" y="517" width="160" height="110" as="geometry"/>
                </mxCell>
                <mxCell id="sR6NPdm-bq62-Y4CgQ1I-275" value="kontakt" style="text;strokeColor=none;fillColor=none;align=left;verticalAlign=top;spacingLeft=4;spacingRight=4;overflow=hidden;rotatable=0;points=[[0,0.5],[1,0.5]];portConstraint=eastwest;whiteSpace=wrap;html=1;" parent="sR6NPdm-bq62-Y4CgQ1I-223" vertex="1">
                    <mxGeometry y="26" width="160" height="26" as="geometry"/>
                </mxCell>
                <mxCell id="sR6NPdm-bq62-Y4CgQ1I-225" value="" style="line;strokeWidth=1;fillColor=none;align=left;verticalAlign=middle;spacingTop=-1;spacingLeft=3;spacingRight=3;rotatable=0;labelPosition=right;points=[];portConstraint=eastwest;strokeColor=inherit;" parent="sR6NPdm-bq62-Y4CgQ1I-223" vertex="1">
                    <mxGeometry y="52" width="160" height="8" as="geometry"/>
                </mxCell>
                <mxCell id="sR6NPdm-bq62-Y4CgQ1I-226" value="hodnotitHospodu()" style="text;strokeColor=none;fillColor=none;align=left;verticalAlign=top;spacingLeft=4;spacingRight=4;overflow=hidden;rotatable=0;points=[[0,0.5],[1,0.5]];portConstraint=eastwest;whiteSpace=wrap;html=1;" parent="sR6NPdm-bq62-Y4CgQ1I-223" vertex="1">
                    <mxGeometry y="60" width="160" height="25" as="geometry"/>
                </mxCell>
                <mxCell id="sR6NPdm-bq62-Y4CgQ1I-297" value="hodnotitPivo()" style="text;strokeColor=none;fillColor=none;align=left;verticalAlign=top;spacingLeft=4;spacingRight=4;overflow=hidden;rotatable=0;points=[[0,0.5],[1,0.5]];portConstraint=eastwest;whiteSpace=wrap;html=1;" parent="sR6NPdm-bq62-Y4CgQ1I-223" vertex="1">
                    <mxGeometry y="85" width="160" height="25" as="geometry"/>
                </mxCell>
                <mxCell id="sR6NPdm-bq62-Y4CgQ1I-235" style="edgeStyle=orthogonalEdgeStyle;rounded=0;orthogonalLoop=1;jettySize=auto;html=1;endArrow=none;endFill=0;" parent="WIyWlLk6GJQsqaUBKTNV-1" target="sR6NPdm-bq62-Y4CgQ1I-218" edge="1">
                    <mxGeometry relative="1" as="geometry">
                        <mxPoint x="429" y="239" as="sourcePoint"/>
                        <mxPoint x="689" y="239" as="targetPoint"/>
                        <Array as="points">
                            <mxPoint x="429" y="139"/>
                        </Array>
                    </mxGeometry>
                </mxCell>
                <mxCell id="sR6NPdm-bq62-Y4CgQ1I-237" value="Je dostupné v" style="edgeLabel;html=1;align=center;verticalAlign=middle;resizable=0;points=[];" parent="sR6NPdm-bq62-Y4CgQ1I-235" vertex="1" connectable="0">
                    <mxGeometry x="0.1297" y="-1" relative="1" as="geometry">
                        <mxPoint y="8" as="offset"/>
                    </mxGeometry>
                </mxCell>
                <mxCell id="sR6NPdm-bq62-Y4CgQ1I-238" value="1..*&amp;nbsp;" style="edgeLabel;html=1;align=center;verticalAlign=middle;resizable=0;points=[];" parent="sR6NPdm-bq62-Y4CgQ1I-235" vertex="1" connectable="0">
                    <mxGeometry x="-0.9429" y="-3" relative="1" as="geometry">
                        <mxPoint x="-14" y="-6" as="offset"/>
                    </mxGeometry>
                </mxCell>
                <mxCell id="sR6NPdm-bq62-Y4CgQ1I-239" value="0..*" style="edgeLabel;html=1;align=center;verticalAlign=middle;resizable=0;points=[];" parent="sR6NPdm-bq62-Y4CgQ1I-235" vertex="1" connectable="0">
                    <mxGeometry x="0.9155" y="-1" relative="1" as="geometry">
                        <mxPoint x="-11" y="3" as="offset"/>
                    </mxGeometry>
                </mxCell>
                <mxCell id="sR6NPdm-bq62-Y4CgQ1I-300" style="edgeStyle=orthogonalEdgeStyle;rounded=0;orthogonalLoop=1;jettySize=auto;html=1;endArrow=block;endFill=0;endSize=24;" parent="WIyWlLk6GJQsqaUBKTNV-1" source="sR6NPdm-bq62-Y4CgQ1I-247" target="sR6NPdm-bq62-Y4CgQ1I-223" edge="1">
                    <mxGeometry relative="1" as="geometry"/>
                </mxCell>
                <mxCell id="sR6NPdm-bq62-Y4CgQ1I-247" value="Sládek" style="swimlane;fontStyle=1;align=center;verticalAlign=top;childLayout=stackLayout;horizontal=1;startSize=26;horizontalStack=0;resizeParent=1;resizeParentMax=0;resizeLast=0;collapsible=1;marginBottom=0;whiteSpace=wrap;html=1;" parent="WIyWlLk6GJQsqaUBKTNV-1" vertex="1">
                    <mxGeometry x="600" y="369" width="160" height="86" as="geometry"/>
                </mxCell>
                <mxCell id="sR6NPdm-bq62-Y4CgQ1I-248" value="jméno" style="text;strokeColor=none;fillColor=none;align=left;verticalAlign=top;spacingLeft=4;spacingRight=4;overflow=hidden;rotatable=0;points=[[0,0.5],[1,0.5]];portConstraint=eastwest;whiteSpace=wrap;html=1;" parent="sR6NPdm-bq62-Y4CgQ1I-247" vertex="1">
                    <mxGeometry y="26" width="160" height="26" as="geometry"/>
                </mxCell>
                <mxCell id="sR6NPdm-bq62-Y4CgQ1I-249" value="" style="line;strokeWidth=1;fillColor=none;align=left;verticalAlign=middle;spacingTop=-1;spacingLeft=3;spacingRight=3;rotatable=0;labelPosition=right;points=[];portConstraint=eastwest;strokeColor=inherit;" parent="sR6NPdm-bq62-Y4CgQ1I-247" vertex="1">
                    <mxGeometry y="52" width="160" height="8" as="geometry"/>
                </mxCell>
                <mxCell id="sR6NPdm-bq62-Y4CgQ1I-250" value="pridatPivo()" style="text;strokeColor=none;fillColor=none;align=left;verticalAlign=top;spacingLeft=4;spacingRight=4;overflow=hidden;rotatable=0;points=[[0,0.5],[1,0.5]];portConstraint=eastwest;whiteSpace=wrap;html=1;" parent="sR6NPdm-bq62-Y4CgQ1I-247" vertex="1">
                    <mxGeometry y="60" width="160" height="26" as="geometry"/>
                </mxCell>
                <mxCell id="sR6NPdm-bq62-Y4CgQ1I-305" style="edgeStyle=orthogonalEdgeStyle;rounded=0;orthogonalLoop=1;jettySize=auto;html=1;endArrow=none;endFill=0;" parent="WIyWlLk6GJQsqaUBKTNV-1" source="sR6NPdm-bq62-Y4CgQ1I-264" target="sR6NPdm-bq62-Y4CgQ1I-218" edge="1">
                    <mxGeometry relative="1" as="geometry">
                        <Array as="points">
                            <mxPoint x="570" y="230"/>
                            <mxPoint x="570" y="90"/>
                        </Array>
                    </mxGeometry>
                </mxCell>
                <mxCell id="sR6NPdm-bq62-Y4CgQ1I-318" value="0..*" style="edgeLabel;html=1;align=center;verticalAlign=middle;resizable=0;points=[];" parent="sR6NPdm-bq62-Y4CgQ1I-305" vertex="1" connectable="0">
                    <mxGeometry x="0.9062" y="-2" relative="1" as="geometry">
                        <mxPoint y="-6" as="offset"/>
                    </mxGeometry>
                </mxCell>
                <mxCell id="sR6NPdm-bq62-Y4CgQ1I-264" value="Pivovar" style="swimlane;fontStyle=1;align=center;verticalAlign=top;childLayout=stackLayout;horizontal=1;startSize=26;horizontalStack=0;resizeParent=1;resizeParentMax=0;resizeLast=0;collapsible=1;marginBottom=0;whiteSpace=wrap;html=1;" parent="WIyWlLk6GJQsqaUBKTNV-1" vertex="1">
                    <mxGeometry x="600" y="219" width="160" height="86" as="geometry"/>
                </mxCell>
                <mxCell id="sR6NPdm-bq62-Y4CgQ1I-265" value="+ field: type" style="text;strokeColor=none;fillColor=none;align=left;verticalAlign=top;spacingLeft=4;spacingRight=4;overflow=hidden;rotatable=0;points=[[0,0.5],[1,0.5]];portConstraint=eastwest;whiteSpace=wrap;html=1;" parent="sR6NPdm-bq62-Y4CgQ1I-264" vertex="1">
                    <mxGeometry y="26" width="160" height="26" as="geometry"/>
                </mxCell>
                <mxCell id="sR6NPdm-bq62-Y4CgQ1I-266" value="" style="line;strokeWidth=1;fillColor=none;align=left;verticalAlign=middle;spacingTop=-1;spacingLeft=3;spacingRight=3;rotatable=0;labelPosition=right;points=[];portConstraint=eastwest;strokeColor=inherit;" parent="sR6NPdm-bq62-Y4CgQ1I-264" vertex="1">
                    <mxGeometry y="52" width="160" height="8" as="geometry"/>
                </mxCell>
                <mxCell id="sR6NPdm-bq62-Y4CgQ1I-267" value="+ method(type): type" style="text;strokeColor=none;fillColor=none;align=left;verticalAlign=top;spacingLeft=4;spacingRight=4;overflow=hidden;rotatable=0;points=[[0,0.5],[1,0.5]];portConstraint=eastwest;whiteSpace=wrap;html=1;" parent="sR6NPdm-bq62-Y4CgQ1I-264" vertex="1">
                    <mxGeometry y="60" width="160" height="26" as="geometry"/>
                </mxCell>
                <mxCell id="sR6NPdm-bq62-Y4CgQ1I-269" value="" style="endArrow=diamondThin;endFill=0;endSize=24;html=1;rounded=0;" parent="WIyWlLk6GJQsqaUBKTNV-1" source="sR6NPdm-bq62-Y4CgQ1I-247" target="sR6NPdm-bq62-Y4CgQ1I-264" edge="1">
                    <mxGeometry width="160" relative="1" as="geometry">
                        <mxPoint x="670" y="439" as="sourcePoint"/>
                        <mxPoint x="830" y="439" as="targetPoint"/>
                    </mxGeometry>
                </mxCell>
                <mxCell id="sR6NPdm-bq62-Y4CgQ1I-273" value="0..n" style="edgeLabel;html=1;align=center;verticalAlign=middle;resizable=0;points=[];" parent="sR6NPdm-bq62-Y4CgQ1I-269" vertex="1" connectable="0">
                    <mxGeometry x="-0.7838" relative="1" as="geometry">
                        <mxPoint x="10" y="-1" as="offset"/>
                    </mxGeometry>
                </mxCell>
                <mxCell id="sR6NPdm-bq62-Y4CgQ1I-274" value="0..1" style="edgeLabel;html=1;align=center;verticalAlign=middle;resizable=0;points=[];" parent="sR6NPdm-bq62-Y4CgQ1I-269" vertex="1" connectable="0">
                    <mxGeometry x="0.7207" y="-2" relative="1" as="geometry">
                        <mxPoint x="19" y="2" as="offset"/>
                    </mxGeometry>
                </mxCell>
                <mxCell id="sR6NPdm-bq62-Y4CgQ1I-279" style="edgeStyle=orthogonalEdgeStyle;rounded=0;orthogonalLoop=1;jettySize=auto;html=1;endArrow=none;endFill=0;" parent="WIyWlLk6GJQsqaUBKTNV-1" source="sR6NPdm-bq62-Y4CgQ1I-8" target="sR6NPdm-bq62-Y4CgQ1I-264" edge="1">
                    <mxGeometry relative="1" as="geometry">
                        <mxPoint x="520" y="379" as="sourcePoint"/>
                        <Array as="points">
                            <mxPoint x="555" y="329"/>
                            <mxPoint x="555" y="269"/>
                        </Array>
                    </mxGeometry>
                </mxCell>
                <mxCell id="sR6NPdm-bq62-Y4CgQ1I-282" value="1..*" style="edgeLabel;html=1;align=center;verticalAlign=middle;resizable=0;points=[];" parent="sR6NPdm-bq62-Y4CgQ1I-279" vertex="1" connectable="0">
                    <mxGeometry x="-0.862" relative="1" as="geometry">
                        <mxPoint x="5" y="-8" as="offset"/>
                    </mxGeometry>
                </mxCell>
                <mxCell id="sR6NPdm-bq62-Y4CgQ1I-283" value="0..1" style="edgeLabel;html=1;align=center;verticalAlign=middle;resizable=0;points=[];" parent="sR6NPdm-bq62-Y4CgQ1I-279" vertex="1" connectable="0">
                    <mxGeometry x="0.9086" relative="1" as="geometry">
                        <mxPoint x="-8" y="-8" as="offset"/>
                    </mxGeometry>
                </mxCell>
                <mxCell id="sR6NPdm-bq62-Y4CgQ1I-290" value="0..*" style="edgeLabel;html=1;align=center;verticalAlign=middle;resizable=0;points=[];" parent="WIyWlLk6GJQsqaUBKTNV-1" vertex="1" connectable="0">
                    <mxGeometry x="392" y="688.1044776119404" as="geometry">
                        <mxPoint x="28" y="-5" as="offset"/>
                    </mxGeometry>
                </mxCell>
                <mxCell id="sR6NPdm-bq62-Y4CgQ1I-291" value="0..*" style="edgeLabel;html=1;align=center;verticalAlign=middle;resizable=0;points=[];" parent="WIyWlLk6GJQsqaUBKTNV-1" vertex="1" connectable="0">
                    <mxGeometry x="423" y="694.1044776119404" as="geometry">
                        <mxPoint x="58" y="-13" as="offset"/>
                    </mxGeometry>
                </mxCell>
                <mxCell id="sR6NPdm-bq62-Y4CgQ1I-307" value="Rámcová smlouva" style="swimlane;fontStyle=1;align=center;verticalAlign=top;childLayout=stackLayout;horizontal=1;startSize=26;horizontalStack=0;resizeParent=1;resizeParentMax=0;resizeLast=0;collapsible=1;marginBottom=0;whiteSpace=wrap;html=1;" parent="WIyWlLk6GJQsqaUBKTNV-1" vertex="1">
                    <mxGeometry x="600" y="31" width="180" height="156" as="geometry"/>
                </mxCell>
                <mxCell id="sR6NPdm-bq62-Y4CgQ1I-308" value="&lt;span style=&quot;&quot;&gt;Identifikace smluvních stran&lt;/span&gt;" style="text;strokeColor=none;fillColor=none;align=left;verticalAlign=top;spacingLeft=4;spacingRight=4;overflow=hidden;rotatable=0;points=[[0,0.5],[1,0.5]];portConstraint=eastwest;whiteSpace=wrap;html=1;" parent="sR6NPdm-bq62-Y4CgQ1I-307" vertex="1">
                    <mxGeometry y="26" width="180" height="26" as="geometry"/>
                </mxCell>
                <mxCell id="sR6NPdm-bq62-Y4CgQ1I-312" value="&lt;span style=&quot;&quot;&gt;Identifikace předmětu smlouvy&lt;/span&gt;" style="text;strokeColor=none;fillColor=none;align=left;verticalAlign=top;spacingLeft=4;spacingRight=4;overflow=hidden;rotatable=0;points=[[0,0.5],[1,0.5]];portConstraint=eastwest;whiteSpace=wrap;html=1;" parent="sR6NPdm-bq62-Y4CgQ1I-307" vertex="1">
                    <mxGeometry y="52" width="180" height="26" as="geometry"/>
                </mxCell>
                <mxCell id="sR6NPdm-bq62-Y4CgQ1I-313" value="&lt;span style=&quot;&quot;&gt;Kupní cena&lt;/span&gt;" style="text;strokeColor=none;fillColor=none;align=left;verticalAlign=top;spacingLeft=4;spacingRight=4;overflow=hidden;rotatable=0;points=[[0,0.5],[1,0.5]];portConstraint=eastwest;whiteSpace=wrap;html=1;" parent="sR6NPdm-bq62-Y4CgQ1I-307" vertex="1">
                    <mxGeometry y="78" width="180" height="26" as="geometry"/>
                </mxCell>
                <mxCell id="sR6NPdm-bq62-Y4CgQ1I-314" value="&lt;span style=&quot;&quot;&gt;Shoda projevu vůle&lt;/span&gt;" style="text;strokeColor=none;fillColor=none;align=left;verticalAlign=top;spacingLeft=4;spacingRight=4;overflow=hidden;rotatable=0;points=[[0,0.5],[1,0.5]];portConstraint=eastwest;whiteSpace=wrap;html=1;" parent="sR6NPdm-bq62-Y4CgQ1I-307" vertex="1">
                    <mxGeometry y="104" width="180" height="26" as="geometry"/>
                </mxCell>
                <mxCell id="0" value="&lt;span style=&quot;&quot;&gt;Datum a podpisy&lt;/span&gt;" style="text;strokeColor=none;fillColor=none;align=left;verticalAlign=top;spacingLeft=4;spacingRight=4;overflow=hidden;rotatable=0;points=[[0,0.5],[1,0.5]];portConstraint=eastwest;whiteSpace=wrap;html=1;" vertex="1" parent="sR6NPdm-bq62-Y4CgQ1I-307">
                    <mxGeometry y="130" width="180" height="26" as="geometry"/>
                </mxCell>
                <mxCell id="sR6NPdm-bq62-Y4CgQ1I-319" value="0..*" style="edgeLabel;html=1;align=center;verticalAlign=middle;resizable=0;points=[];" parent="WIyWlLk6GJQsqaUBKTNV-1" vertex="1" connectable="0">
                    <mxGeometry x="567.2857142857142" y="126" as="geometry">
                        <mxPoint x="22" y="96" as="offset"/>
                    </mxGeometry>
                </mxCell>
                <mxCell id="sR6NPdm-bq62-Y4CgQ1I-329" value="1..*" style="edgeLabel;html=1;align=center;verticalAlign=middle;resizable=0;points=[];" parent="WIyWlLk6GJQsqaUBKTNV-1" vertex="1" connectable="0">
                    <mxGeometry x="278" y="955.0002702702702" as="geometry">
                        <mxPoint x="211" y="46" as="offset"/>
                    </mxGeometry>
                </mxCell>
                <mxCell id="sR6NPdm-bq62-Y4CgQ1I-330" value="1..*" style="edgeLabel;html=1;align=center;verticalAlign=middle;resizable=0;points=[];" parent="WIyWlLk6GJQsqaUBKTNV-1" vertex="1" connectable="0">
                    <mxGeometry x="612" y="1017.0002702702702" as="geometry">
                        <mxPoint x="-243" y="-16" as="offset"/>
                    </mxGeometry>
                </mxCell>
            </root>
        </mxGraphModel>
    </diagram>
</mxfile>